PathFileType	4	(X/Y/Z)	RBDS024\RBDS024runT45.trc
DataRate	CameraRate	NumFrames	NumMarkers	Units	OrigDataRate	OrigDataStartFrame	OrigNumFrames
150.000000	150.000000	5	32	mm	150.000000	0	4500
Frame#	Time	L.ASIS			L.Heel.Bottom			L.Heel.Lateral			L.Heel.Top			L.Iliac.Crest			L.MT5			L.PSIS			L.Shank.Bottom.Lateral			L.Shank.Bottom.Medial			L.Shank.Top.Lateral			L.Shank.Top.Medial			L.Thigh.Bottom.Lateral			L.Thigh.Bottom.Medial			L.Thigh.Top.Lateral			L.Thigh.Top.Medial			R.ASIS			R.ASY			R.Heel.Bottom			R.Heel.Lateral			R.Heel.Top			R.Iliac.Crest			R.MT1			R.MT5			R.PSIS			R.Shank.Bottom.Lateral			R.Shank.Bottom.Medial			R.Shank.Top.Lateral			R.Shank.Top.Medial			R.Thigh.Bottom.Lateral			R.Thigh.Bottom.Medial			R.Thigh.Top.Lateral			R.Thigh.Top.Medial			
		X1	Y1	Z1	X2	Y2	Z2	X3	Y3	Z3	X4	Y4	Z4	X5	Y5	Z5	X6	Y6	Z6	X7	Y7	Z7	X8	Y8	Z8	X9	Y9	Z9	X10	Y10	Z10	X11	Y11	Z11	X12	Y12	Z12	X13	Y13	Z13	X14	Y14	Z14	X15	Y15	Z15	X16	Y16	Z16	X17	Y17	Z17	X18	Y18	Z18	X19	Y19	Z19	X20	Y20	Z20	X21	Y21	Z21	X22	Y22	Z22	X23	Y23	Z23	X24	Y24	Z24	X25	Y25	Z25	X26	Y26	Z26	X27	Y27	Z27	X28	Y28	Z28	X29	Y29	Z29	X30	Y30	Z30	X31	Y31	Z31	X32	Y32	Z32	

1	0	2201.311401452388	992.7265522470419	937.6317971941608	2175.228239687902	160.3540542044382	985.2749236505267	2201.779348715248	172.4349455930119	941.8080040334836	2196.857045982089	199.9277122541824	985.7360945081638	2108.220259308016	1066.526810705269	874.3390757582603	2352.461030740904	108.6189873052805	902.2408322522293	2021.244644553713	1026.556706981007	983.9526971835796	2285.374348070531	277.4884430245211	926.9013510866312	2244.167110588026	290.1066271182704	953.8481044207622	2301.347208661875	355.8327305119959	910.7166621329586	2260.171434343803	372.1509587085	940.0678999418376	2326.513574584837	692.1125618845748	884.1309007742901	2280.026329974123	646.4079620984961	913.708818348727	2242.109420148017	759.3172192323789	861.9412818193059	2198.053802297684	715.7661410419732	890.2580853953159	2192.266331816889	963.2313817103077	1159.917342929336	1639.915424498393	121.3674469714651	1088.624632356576	1518.045244839895	261.3409421664143	1037.364333714225	1532.105440805496	240.2065526974008	1089.477520034054	1556.984574576605	274.2194204284075	1052.787874529748	2152.209917597082	1039.007148551446	1204.662949857717	1634.323305939611	77.51625148826081	1026.19000184444	1581.078027714958	91.78131626764662	1127.373256505199	2025.745440600929	1025.545834825713	1089.830059698963	1632.210978408282	302.1332756302434	1124.603515640962	1617.970129616873	325.5940710954769	1076.721258229818	1674.368534692861	369.3961673529142	1143.15299531076	1659.19113964533	391.5447036124442	1096.647933850581	1928.023649914539	657.8217618870788	1190.883243877146	1887.044253759588	684.9834597304446	1136.863829055283	1968.127645694555	758.6593884012177	1205.954737052341	1931.273494065016	782.953353061445	1152.495372680053	
2	0.006666666666666667	2200.936054500996	994.6056649436732	936.5266475751441	2208.303119267025	144.1899444788209	985.8897438147496	2233.56889570256	157.927242889561	942.0946024312166	2226.237624895204	184.9496535084059	985.961893413722	2107.817797295448	1070.391419732099	874.7766198054475	2387.520270335355	107.6517766324615	903.4716465475428	2022.649310600556	1030.789215620695	984.3131013091611	2306.793620027264	269.2548302747555	926.3018099727492	2265.18587518021	278.6023372850173	953.5196082490794	2316.521418611419	347.5524524834926	909.3144386492847	2274.643789152192	360.8293017169768	938.7231846901668	2321.756560494634	689.3072600513768	883.6467797841184	2274.199357134099	644.6814295688504	912.9367609935667	2239.157192513296	758.7418656222725	861.9732937498953	2194.013895131518	716.3891945674292	890.2886387320315	2194.177821488652	966.2979470741632	1158.717784616103	1623.950385792563	134.6799222871251	1089.353529189526	1508.658149752418	278.9058212693394	1035.694697451519	1521.404217772264	258.0545779125125	1088.266135717146	1547.999421575043	290.2730088172651	1051.366219572905	2155.796668106873	1043.33606667137	1203.346784804859	1617.160588049912	90.00147049485322	1027.686680293987	1563.911005350134	108.0143323011423	1128.250030627654	2028.006379492137	1030.793383221228	1090.206845433332	1622.940795654603	315.5308052271291	1123.892384636879	1609.764133096575	339.3028929568032	1075.856947640566	1667.412696391835	381.3089353618024	1142.46775004042	1653.314514331034	403.7302506919886	1095.765958390041	1927.572150329671	662.5092422414522	1190.238630550279	1886.784911554683	689.9439096486094	1136.211726654557	1968.27531008836	763.1073030685939	1205.340246790637	1931.760106170645	787.7469124536391	1151.699443254771	
3	0.01333333333333333	2200.55444827227	996.3474469506201	935.4449466420982	2240.794322082172	128.6015192587827	986.5221405550811	2264.800636192516	143.9543108511224	942.4161420140526	2255.051335649096	170.4682777942487	986.1960510532662	2107.396508208069	1073.961515451471	875.1644396912052	2421.776434080246	107.1478272004462	904.7857175769419	2023.966797061685	1034.802685203775	984.6438680918471	2327.72828078171	261.3266952113004	925.7347417500462	2285.731349162785	267.4437251361602	953.1566452743148	2331.313051972204	339.4846753523763	907.9282564920863	2288.743148673135	349.7354473877408	937.3341071952867	2316.793889149499	686.3012419995335	882.970824936615	2268.256815430668	642.8298450386053	912.1674824666543	2235.987006567396	757.9367722725024	861.8404704170159	2189.842079368658	716.8467726024155	890.313356457842	2196.025887683643	969.293828229212	1157.567166000605	1608.409037411465	148.2277527299947	1089.92428879362	1499.541901015618	296.6058289314049	1034.071889757929	1511.049479825547	276.008186424003	1087.069418338132	1539.275009761777	306.4727393218902	1049.937199754357	2159.143118305829	1047.655487523621	1202.022135981817	1600.341826864983	102.8021310233368	1028.984477948632	1547.237879654084	124.4287172283083	1129.021365792713	2030.142271489053	1035.822759670816	1090.544782562876	1614.064443396886	328.9821538496511	1123.147393531406	1601.948116970464	353.1160305243324	1074.995924961374	1660.870166534027	393.1822594410063	1141.777532003385	1647.847245250629	415.9273892530043	1094.916417225974	1927.491882939326	666.7724301463626	1189.712613470149	1886.806353244181	694.4623744740979	1135.743894356742	1968.702953222257	767.1624469317081	1204.879506559369	1932.394465162966	792.1369876648895	1151.159928893935	
4	0.02	2200.164879791083	997.8434347789674	934.4070416356159	2272.176097756374	114.0832519782286	987.1893797970109	2294.97004524991	130.9520457218568	942.7981393211277	2282.791286862177	156.9081333181442	986.4280043056244	2106.935043292739	1076.993162821525	875.4674264996494	2454.51574169888	107.4210978987416	906.234759125579	2025.119770975987	1038.398615786352	984.9213806981901	2347.723562153679	253.9655339509017	925.2019209018243	2305.374412995182	256.9278064150737	952.7240811910361	2345.350049482661	331.8138760305062	906.5633583705931	2302.122406048279	339.0680540922061	935.8757187870084	2311.451476988654	682.9345506375395	881.9520792459743	2262.102022232884	640.7544205357317	911.4112613091862	2232.415382473143	756.7168416685425	861.4150433444611	2185.430129366979	717.0052467796605	890.3370068737127	2197.754783861695	972.1624000728923	1156.511430486136	1593.644572413193	162.2395100529642	1090.186439670852	1490.949670887654	314.5972941820382	1032.533813451756	1501.355586032818	294.19282822188	1085.890809231537	1531.056493559516	322.9773622325488	1048.492504817804	2162.024577713836	1051.960488850823	1200.689136720227	1584.149692006174	116.2210247904164	1029.902105069761	1531.470120779465	141.2146167696962	1129.580853388983	2032.045346136275	1040.43242877433	1090.813666463431	1605.931391753188	342.5518164836915	1122.336588421938	1594.871157162966	367.144093563987	1074.13986783137	1655.10964149947	404.9964997390253	1141.076733358118	1643.156874813628	428.163896751128	1094.128145424839	1928.107593766967	670.2415267779273	1189.401005552922	1887.353207437612	698.1528899960306	1135.612411786201	1969.655170134935	770.4841572328589	1204.694513093786	1933.308400932884	795.771194377484	1151.085718375897	
5	0.02666666666666667	2199.764457278275	999.0087762834443	933.432355252147	2301.930157437743	101.0293092597186	987.9032811423284	2323.581483855583	119.2587962414459	943.2582513669597	2308.971007622742	144.6107657619378	986.6438761805741	2106.423331048818	1079.301545335982	875.661618016311	2485.092900095402	108.644080112262	907.8474235121798	2026.044360611953	1041.410745702124	985.1345426763274	2366.35001960947	247.3725418094818	924.6995804595496	2323.715740114215	247.2964425856151	952.2081159765892	2358.279209660091	324.6895768204817	905.2299735885056	2314.46115834775	329.0026361476765	934.3548468196194	2305.621110029569	679.1106166114999	880.4975152603545	2255.683807835118	638.3926825261721	910.6783140648294	2228.321149415913	754.9596647709889	860.6174443930854	2180.714249124229	716.7696406564527	890.3661274572207	2199.322057254584	974.8480957741028	1155.588396936321	1579.950935049047	176.8731613327716	1090.030083950702	1483.14861510629	332.9981621943083	1031.106887340989	1492.621924352646	312.6967975050273	1084.72811468474	1523.600875003302	339.8981808018435	1047.030244095633	2164.264348924373	1056.222041487753	1199.356460549817	1568.834420280024	130.4776984238065	1030.303686173428	1516.942827346062	158.5092022087698	1129.837682792582	2033.633025388788	1044.445619894517	1090.997941636149	1598.852897606733	356.269302872618	1121.443288979678	1588.845997292717	381.4491262411604	1073.297584122288	1650.451765332559	416.7161851633277	1140.366748756725	1639.564034208202	440.43870059535	1093.429224144656	1929.667881175412	672.6271224131624	1189.366792604611	1888.613702970691	700.7102474820159	1135.921219694945	1971.316651472158	772.8067155653023	1204.863736384695	1934.609091384836	798.3689504575742	1151.613795118198	
